<svg width="200" height="200" viewBox="0 0 200 200" fill="none" xmlns="http://www.w3.org/2000/svg">
<rect width="200" height="200" rx="100" fill="url(#paint0_linear_4_21)"/>
<path d="M93.7871 166.703C92.4395 166.234 89.5684 166 85.1738 166H49.3145C46.2676 166 43.8359 165.531 42.0195 164.594C40.2031 163.598 39.2949 161.811 39.2949 159.232C39.2949 157.357 39.7344 155.863 40.6133 154.75C42.8398 155.336 44.9785 155.629 47.0293 155.629C49.0801 155.629 50.6914 155.424 51.8633 155.014C53.0352 154.545 54.0605 153.754 54.9395 152.641C56.6973 150.297 57.5762 146.4 57.5762 140.951V51.0391C57.4004 46.9375 56.0527 44.3301 53.5332 43.2168C52.7715 42.8652 51.7168 42.543 50.3691 42.25C49.0801 41.957 47.791 41.6641 46.502 41.3711C45.2715 41.0195 44.2168 40.6094 43.3379 40.1406C41.5801 39.2031 40.7012 37.9727 40.7012 36.4492C40.7012 33.6953 41.1699 31.7324 42.1074 30.5605C43.4551 31.0293 46.3555 31.2637 50.8086 31.2637H62.2344L93.084 30.3848L96.8633 30.2969C114.91 30.2969 128.416 33.5195 137.381 39.9648C146.346 46.3516 150.828 55.375 150.828 67.0352C150.828 75.7656 147.986 83.793 142.303 91.1172C135.975 99.2617 127.244 104.77 116.111 107.641C119.158 109.75 122.615 113.617 126.482 119.242L135.799 132.865C144.529 145.58 151.766 151.938 157.508 151.938C159.676 151.938 161.316 151.732 162.43 151.322L164.627 150.443C165.096 150.268 165.623 150.18 166.209 150.18C166.795 150.18 167.41 150.648 168.055 151.586C168.699 152.465 169.021 153.49 169.021 154.662C169.021 155.834 168.523 157.24 167.527 158.881C166.531 160.463 165.125 161.898 163.309 163.188C159.207 166.176 154.725 167.67 149.861 167.67C144.998 167.67 140.984 166.85 137.82 165.209C134.715 163.568 131.844 161.43 129.207 158.793C126.629 156.098 124.256 153.051 122.088 149.652C119.979 146.254 117.986 142.768 116.111 139.193L110.926 128.734C107.234 121.117 104.275 116.225 102.049 114.057C99.8809 111.83 97.8887 110.717 96.0723 110.717H87.1953C85.7305 110.717 84.998 109.662 84.998 107.553C84.998 104.623 86.1113 102.338 88.3379 100.697C89.0996 100.17 91.3848 99.877 95.1934 99.8184C99.002 99.7012 103.279 98.8809 108.025 97.3574C112.83 95.834 116.785 93.7539 119.891 91.1172C125.926 85.9023 128.943 78.5781 128.943 69.1445C128.943 61.2344 126.307 54.7598 121.033 49.7207C115.057 44.0371 106.736 41.1367 96.0723 41.0195C89.041 41.0195 84.3535 42.0742 82.0098 44.1836C79.666 46.1758 78.4355 49.9551 78.3184 55.5215V145.258C78.3184 149.887 79.6074 152.816 82.1855 154.047C83.0059 154.398 84.0898 154.721 85.4375 155.014C86.7852 155.307 88.0742 155.629 89.3047 155.98C90.5938 156.273 91.6777 156.654 92.5566 157.123C94.3145 158.061 95.1934 159.32 95.1934 160.902C95.1934 163.598 94.7246 165.531 93.7871 166.703Z" fill="white"/>
<defs>
<linearGradient id="paint0_linear_4_21" x1="100" y1="0" x2="100" y2="200" gradientUnits="userSpaceOnUse">
<stop offset="0.317273" stop-color="#4F005B"/>
<stop offset="1" stop-color="#CC00ED"/>
</linearGradient>
</defs>
</svg>
